<svg width="16" height="16" viewBox="0 0 16 16" fill="none" xmlns="http://www.w3.org/2000/svg">
<path fill-rule="evenodd" clip-rule="evenodd" d="M2.75 0C1.23122 0 0 1.23122 0 2.75V3.75V7V13.25C0 14.7688 1.23122 16 2.75 16H8.25C8.66421 16 9 15.6642 9 15.25C9 14.8358 8.66421 14.5 8.25 14.5H2.75C2.05964 14.5 1.5 13.9404 1.5 13.25V7V4.5H13.25C13.9404 4.5 14.5 5.05964 14.5 5.75V8.25C14.5 8.66421 14.8358 9 15.25 9C15.6642 9 16 8.66421 16 8.25V5.75C16 4.23122 14.7688 3 13.25 3H10.0816L9.22695 1.43322C8.74511 0.549654 7.81902 0 6.8127 0H2.75ZM8.37294 3L7.91008 2.15145L7.91005 2.15138C7.69109 1.74989 7.27018 1.5 6.8127 1.5H2.75C2.05964 1.5 1.5 2.05964 1.5 2.75V3H8.37294ZM13 10C13.4142 10 13.75 10.3358 13.75 10.75V12.25H15.25C15.6642 12.25 16 12.5858 16 13C16 13.4142 15.6642 13.75 15.25 13.75H13.75V15.25C13.75 15.6642 13.4142 16 13 16C12.5858 16 12.25 15.6642 12.25 15.25V13.75H10.75C10.3358 13.75 10 13.4142 10 13C10 12.5858 10.3358 12.25 10.75 12.25H12.25V10.75C12.25 10.3358 12.5858 10 13 10Z" fill="black"/>
</svg>
