<svg width="32" height="32" viewBox="0 0 32 32" fill="none" xmlns="http://www.w3.org/2000/svg">
<path fill-rule="evenodd" clip-rule="evenodd" d="M11.3333 0.5C10.1222 0.5 9.02992 1.22821 8.56411 2.34614L8.5641 2.34615L7.08975 5.88462L7.08974 5.88463C6.93447 6.25726 6.57036 6.5 6.16666 6.5H5.5C2.73858 6.5 0.5 8.73857 0.5 11.5V26.5C0.5 29.2615 2.73858 31.5 5.5 31.5H26.5C29.2615 31.5 31.5 29.2615 31.5 26.5V11.5C31.5 8.73858 29.2615 6.5 26.5 6.5H25.8334C25.4297 6.5 25.0656 6.2573 24.9103 5.88462L24.9102 5.88455L23.4359 2.34614L23.4358 2.34607C22.97 1.22823 21.8777 0.5 20.6666 0.5H11.3333ZM10.4103 3.11538L10.4103 3.11537C10.5655 2.74274 10.9296 2.5 11.3333 2.5H20.6666C21.0703 2.5 21.4344 2.7427 21.5897 3.11538L21.5898 3.11545L23.0641 6.65386L23.0642 6.65393C23.53 7.77177 24.6223 8.5 25.8334 8.5H26.5C28.1569 8.5 29.5 9.84313 29.5 11.5V26.5C29.5 28.1569 28.1569 29.5 26.5 29.5H5.5C3.84313 29.5 2.5 28.1569 2.5 26.5V11.5C2.5 9.84314 3.84314 8.5 5.5 8.5H6.16666C7.37776 8.5 8.47008 7.77179 8.93589 6.65386L8.9359 6.65385L10.4103 3.11538ZM10.5 18C10.5 14.9625 12.9625 12.5 16 12.5C19.0375 12.5 21.5 14.9625 21.5 18C21.5 21.0375 19.0375 23.5 16 23.5C12.9625 23.5 10.5 21.0375 10.5 18ZM16 10.5C11.8579 10.5 8.5 13.8579 8.5 18C8.5 22.1421 11.8579 25.5 16 25.5C20.1421 25.5 23.5 22.1421 23.5 18C23.5 13.8579 20.1421 10.5 16 10.5Z" fill="white"/>
</svg>
