<svg width="16" height="16" viewBox="0 0 16 16" fill="none" xmlns="http://www.w3.org/2000/svg">
<path fill-rule="evenodd" clip-rule="evenodd" d="M6.75 1.5C6.05964 1.5 5.5 2.05964 5.5 2.75V3H10.5V2.75C10.5 2.05964 9.94038 1.5 9.25 1.5H6.75ZM4 2.75V3H2.75C1.23122 3 0 4.23122 0 5.75V13.25C0 14.7688 1.23122 16 2.75 16H13.25C14.7688 16 16 14.7688 16 13.25V5.75C16 4.23122 14.7688 3 13.25 3H12V2.75C12 1.23122 10.7688 0 9.25 0H6.75C5.23122 0 4 1.23122 4 2.75ZM2.75 4.5C2.05964 4.5 1.5 5.05964 1.5 5.75V8.5H4V7.75C4 7.33579 4.33579 7 4.75 7C5.16421 7 5.5 7.33579 5.5 7.75V8.5H10.5V7.75C10.5 7.33579 10.8358 7 11.25 7C11.6642 7 12 7.33579 12 7.75V8.5H14.5V5.75C14.5 5.05964 13.9404 4.5 13.25 4.5H2.75ZM10.5 10V10.25C10.5 10.6642 10.8358 11 11.25 11C11.6642 11 12 10.6642 12 10.25V10H14.5V13.25C14.5 13.9404 13.9404 14.5 13.25 14.5H2.75C2.05964 14.5 1.5 13.9404 1.5 13.25V10H4V10.25C4 10.6642 4.33579 11 4.75 11C5.16421 11 5.5 10.6642 5.5 10.25V10H10.5Z" fill="#505050"/>
</svg>
