<svg width="16" height="16" viewBox="0 0 16 16" fill="none" xmlns="http://www.w3.org/2000/svg">
<path fill-rule="evenodd" clip-rule="evenodd" d="M4.25855 0C3.03072 0 1.95167 0.813947 1.61436 1.99451L1.61436 1.99452L0.0335644 7.5273C0.0216638 7.56563 0.0127538 7.60527 0.00710753 7.64596C0.00135835 7.68663 -0.000965339 7.7272 -5.10395e-05 7.76732V13.25C-5.10395e-05 14.7688 1.23117 16 2.74995 16H13.2499C14.7688 16 15.9999 14.7688 15.9999 13.25V7.76736C16.0009 7.72709 15.9985 7.68636 15.9927 7.64553C15.9871 7.60501 15.9782 7.56552 15.9663 7.52735L14.3855 1.99453L14.3855 1.99451C14.0482 0.813945 12.9692 0 11.7413 0H4.25855ZM14.2556 7L12.9432 2.40661L12.9432 2.40659C12.7899 1.86995 12.2995 1.5 11.7413 1.5H4.25855C3.70046 1.5 3.20997 1.86997 3.05664 2.4066L3.05664 2.40661L1.74425 7H5.1708C5.91223 7 6.45553 7.46784 6.7757 7.86955L1.52229 7.77686L1.52229 7.77686L6.77572 7.86957C6.78711 7.88386 6.79821 7.89806 6.80903 7.91216C7.08453 8.27098 7.51535 8.5 7.99995 8.5C8.48453 8.5 8.91534 8.271 9.19084 7.91219L6.77572 7.86957C6.77571 7.86956 6.77571 7.86956 6.7757 7.86955L9.19086 7.91216C9.50592 7.50178 10.0612 7 10.829 7H14.2556ZM1.49995 13.25V8.5H5.1708C5.2506 8.5 5.41813 8.56363 5.61923 8.8256L5.61926 8.82564C6.16637 9.53822 7.02934 10 7.99995 10C8.97056 10 9.83353 9.53822 10.3806 8.82564L10.3807 8.82561C10.5818 8.56359 10.7493 8.5 10.829 8.5H14.4999V13.25C14.4999 13.9404 13.9403 14.5 13.2499 14.5H2.74995C2.05959 14.5 1.49995 13.9404 1.49995 13.25Z" fill="#505050"/>
</svg>
