<svg width="32" height="32" viewBox="0 0 32 32" fill="none" xmlns="http://www.w3.org/2000/svg">
<rect width="32" height="32" rx="16" fill="black"/>
<path d="M24.8838 23.55C23.8338 23.525 22.8088 23.525 21.7588 23.55C21.5338 23.55 21.4838 23.5 21.4838 23.275C21.4838 21.425 21.4838 19.55 21.4838 17.7C21.4838 17.275 21.4588 16.85 21.3338 16.45C20.9588 15.15 19.4588 14.675 18.3838 15.55C17.8088 16 17.5838 16.625 17.5838 17.375C17.5838 19.125 17.5838 20.875 17.5838 22.625C17.5838 22.85 17.5588 23.075 17.5838 23.325C17.6088 23.525 17.5088 23.575 17.3338 23.55C16.2588 23.55 15.2088 23.55 14.1338 23.55C13.9338 23.55 13.8838 23.5 13.8838 23.3C13.9088 21.725 13.9088 20.15 13.9088 18.55C13.9088 16.6 13.9088 14.65 13.8838 12.725C13.8838 12.5 13.9338 12.45 14.1338 12.45C15.2088 12.45 16.2588 12.45 17.3338 12.45C17.5338 12.45 17.5838 12.5 17.5838 12.7C17.5838 13.1 17.5838 13.5 17.5838 13.975C17.6588 13.9 17.6838 13.875 17.7088 13.85C18.6838 12.425 20.0588 12.025 21.6838 12.275C23.5588 12.575 24.7588 13.875 25.0588 15.875C25.1338 16.35 25.1588 16.825 25.1588 17.3C25.1588 19.3 25.1588 21.275 25.1588 23.275C25.1588 23.475 25.1088 23.55 24.8838 23.55Z" fill="white"/>
<path d="M11.884 18C11.884 19.75 11.884 21.5 11.884 23.25C11.884 23.475 11.834 23.55 11.609 23.55C10.559 23.525 9.50898 23.55 8.45898 23.55C8.25898 23.55 8.20898 23.5 8.20898 23.3C8.20898 19.775 8.20898 16.225 8.20898 12.7C8.20898 12.525 8.25898 12.45 8.45898 12.45C9.53398 12.45 10.609 12.45 11.684 12.45C11.909 12.45 11.934 12.525 11.934 12.725C11.884 14.475 11.884 16.225 11.884 18Z" fill="white"/>
<path d="M12.0586 9.55001C11.8086 10.55 10.7836 11.125 9.60862 10.925C8.35862 10.725 7.65862 9.50001 8.10862 8.30001C8.40862 7.55001 9.13362 7.10001 10.0586 7.12501C11.4586 7.10001 12.3836 8.22501 12.0586 9.55001Z" fill="white"/>
</svg>
