<svg width="112" height="22" viewBox="0 0 112 22" fill="none" xmlns="http://www.w3.org/2000/svg">
<path d="M5.25829 9.5408C2.9871 4.10956 1.48121 1.39394 0 1.15362V0.865234C2.8143 1.08152 6.24431 1.10555 9.23287 0.865234V1.15362C7.45542 2.25909 8.46758 5.14294 9.25755 7.09095C10.0969 9.1577 10.9609 11.2004 11.9731 13.2672L14.2966 6.89869C15.6543 3.15252 15.7531 2.04422 14.3953 1.15503V0.865234C16.1728 1.10555 17.3824 1.10555 19.1599 0.865234V1.15362C17.7527 1.77845 16.6665 2.4259 14.815 7.49808C13.6533 10.6943 12.2969 14.5875 11.3095 17.7357C10.2973 17.7357 9.26046 17.5675 8.2483 17.7357C7.47865 14.8759 6.51732 12.5448 5.25829 9.5408Z" fill="black"/>
<path d="M15.2568 14.756C15.2568 12.2821 19.6758 12.2566 19.6758 14.4916C18.4908 15.0924 19.0339 17.4716 21.3051 17.4716C22.6382 17.4716 23.3294 16.7987 23.3294 15.9576C23.3294 14.9482 22.5641 14.3955 20.6632 13.2419C17.8243 11.5116 16.1194 10.6465 16.1194 9.13529C16.1194 6.97241 18.7609 6.03516 21.1294 6.03516C23.5255 6.03516 23.8203 7.16608 26.5358 6.03516L24.9065 10.2648H24.6872C24.465 8.48642 23.206 6.65999 21.3545 6.68402C20.2654 6.68402 19.6264 6.99644 19.6264 7.81494C19.6264 9.04058 21.7001 9.8096 23.3788 10.7949C25.5759 12.0205 26.5881 12.9578 26.5881 14.4478C26.5881 16.6347 23.9742 18.0045 21.1076 18.0045C18.0711 18.0003 15.2568 16.8467 15.2568 14.756Z" fill="black"/>
<path d="M30.8331 16.7503C29.5988 16.6797 28.1422 16.9907 27.0313 17.8813C27.7719 14.3966 27.8213 12.9335 27.8213 7.90796C27.8213 4.23247 26.9326 2.54881 25.6982 2.38059V2.06676C27.5991 2.04273 30.2406 1.36983 31.7465 0C31.6478 2.28305 31.549 4.66505 31.475 7.06825C32.2156 6.92689 33.2524 5.74649 35.2506 5.74649C38.1389 5.74649 40.4842 7.95744 40.4842 12.0429C40.4842 15.7891 37.7686 18.0028 34.905 18.0028C33.5733 18 32.4131 16.9426 30.8331 16.7503ZM36.4617 12.1122C36.4617 9.03605 35.2027 6.75301 33.5486 6.75301C32.6352 6.75301 31.5984 8.00268 31.4256 9.99734C31.4256 11.1749 31.4009 12.3299 31.4256 13.482C31.4982 15.5247 32.8051 17.0387 34.1658 17.0387C35.6507 17.0387 36.4617 15.0441 36.4617 12.1122Z" fill="black"/>
<path d="M40.1648 17.399C41.4718 16.7501 41.8435 14.7314 41.8435 10.3576C41.8435 5.76748 41.7448 2.81154 39.9434 2.30686V2.06654C42.0657 1.99586 43.9419 1.41768 45.8675 0.0478516C45.5959 3.62863 45.4972 7.56988 45.4972 10.9824C45.4972 14.2989 45.7687 16.9198 47.1018 17.423V17.6874C44.7948 17.4711 42.4718 17.4711 40.1648 17.6874V17.399Z" fill="black"/>
<path d="M46.8057 12.0402C46.8057 8.43543 49.5953 6.03223 52.928 6.03223C56.8532 6.03223 58.2357 8.43543 58.3344 11.3193H51.1259C51.5455 13.2418 52.7799 15.2605 55.1004 15.2605C56.7298 15.2605 57.9394 14.083 58.3591 12.928L58.6306 13.0482C58.2357 14.828 56.7073 17.8291 52.9527 17.8079C50.0149 17.7839 46.8057 15.7171 46.8057 12.0402ZM54.9276 10.9348C54.977 9.10833 54.5573 6.41674 52.8786 6.41674C51.7895 6.41674 50.953 7.57028 50.953 9.80526C50.9501 10.1844 50.9831 10.563 51.0518 10.9362L54.9276 10.9348Z" fill="black"/>
<path d="M60.0371 16.4374C60.0371 15.6203 60.7777 15.0195 61.5183 15.0195C62.2589 15.0195 62.9995 15.6203 62.9995 16.4374C62.9995 17.2305 62.2589 17.8313 61.5183 17.8313C60.7777 17.8313 60.0371 17.2305 60.0371 16.4374Z" fill="black"/>
<path d="M70.9341 17.2375C69.8421 17.2375 68.9881 17.0135 68.3721 16.5655C67.7561 16.1175 67.4294 15.4875 67.3921 14.6755H69.3801C69.4081 14.9182 69.5528 15.1375 69.8141 15.3335C70.0754 15.5202 70.4628 15.6135 70.9761 15.6135C71.3588 15.6135 71.6808 15.5482 71.9421 15.4175C72.2034 15.2869 72.3341 15.0909 72.3341 14.8295C72.3341 14.6055 72.2361 14.4282 72.0401 14.2975C71.8441 14.1575 71.4941 14.0595 70.9901 14.0035L70.3881 13.9475C69.4641 13.8449 68.7688 13.5882 68.3021 13.1775C67.8448 12.7669 67.6161 12.2302 67.6161 11.5675C67.6161 11.0262 67.7514 10.5735 68.0221 10.2095C68.3021 9.84552 68.6801 9.57019 69.1561 9.38352C69.6321 9.19686 70.1781 9.10352 70.7941 9.10352C71.7834 9.10352 72.5768 9.32286 73.1741 9.76152C73.7808 10.1909 74.1028 10.8162 74.1401 11.6375H72.1521C72.1148 11.3949 71.9794 11.1849 71.7461 11.0075C71.5221 10.8302 71.1954 10.7415 70.7661 10.7415C70.4208 10.7415 70.1454 10.8069 69.9401 10.9375C69.7348 11.0682 69.6321 11.2455 69.6321 11.4695C69.6321 11.6842 69.7208 11.8475 69.8981 11.9595C70.0754 12.0715 70.3648 12.1509 70.7661 12.1975L71.3681 12.2535C72.3014 12.3562 73.0294 12.6222 73.5521 13.0515C74.0841 13.4715 74.3501 14.0315 74.3501 14.7315C74.3501 15.5062 74.0421 16.1175 73.4261 16.5655C72.8101 17.0135 71.9794 17.2375 70.9341 17.2375Z" fill="black"/>
<path d="M75.8014 19.7995V9.32752H77.5794V11.2735C77.8034 10.5642 78.1767 10.0275 78.6994 9.66352C79.2314 9.29019 79.8521 9.10352 80.5614 9.10352C81.2707 9.10352 81.8867 9.27619 82.4094 9.62152C82.9414 9.95752 83.3521 10.4195 83.6414 11.0075C83.9401 11.5955 84.0894 12.2582 84.0894 12.9955V13.3175C84.0894 14.0549 83.9494 14.7222 83.6694 15.3195C83.3894 15.9169 82.9881 16.3882 82.4654 16.7335C81.9427 17.0789 81.3081 17.2515 80.5614 17.2515C80.0387 17.2515 79.5581 17.1535 79.1194 16.9575C78.6807 16.7615 78.3214 16.4629 78.0414 16.0615V19.7995H75.8014ZM79.9314 15.3755C80.5007 15.3755 80.9581 15.1702 81.3034 14.7595C81.6581 14.3489 81.8354 13.8122 81.8354 13.1495C81.8354 12.4962 81.6581 11.9689 81.3034 11.5675C80.9581 11.1662 80.5007 10.9655 79.9314 10.9655C79.5861 10.9655 79.2641 11.0449 78.9654 11.2035C78.6761 11.3622 78.4381 11.5909 78.2514 11.8895C78.0741 12.1882 77.9854 12.5429 77.9854 12.9535V13.4715C77.9854 13.8729 78.0787 14.2182 78.2654 14.5075C78.4614 14.7875 78.7087 15.0022 79.0074 15.1515C79.3061 15.3009 79.6141 15.3755 79.9314 15.3755Z" fill="black"/>
<path d="M87.8291 17.1955C86.9985 17.1955 86.3265 16.9809 85.8131 16.5515C85.3091 16.1222 85.0571 15.5155 85.0571 14.7315C85.0571 14.1715 85.2018 13.7142 85.4911 13.3595C85.7805 12.9955 86.1865 12.7295 86.7091 12.5615C87.2318 12.3842 87.8338 12.2955 88.5151 12.2955H89.9011V12.2675C89.9011 11.4835 89.5091 11.0915 88.7251 11.0915C88.5198 11.0915 88.2491 11.1009 87.9131 11.1195C87.5771 11.1289 87.2271 11.1429 86.8631 11.1615C86.5085 11.1709 86.1911 11.1849 85.9111 11.2035V9.31352C86.2378 9.28552 86.6391 9.26219 87.1151 9.24352C87.5911 9.21552 88.0298 9.20152 88.4311 9.20152C89.6071 9.20152 90.5031 9.45352 91.1191 9.95752C91.7445 10.4522 92.0571 11.2315 92.0571 12.2955V16.9995H90.2791V15.5575C90.1111 16.0895 89.8218 16.4955 89.4111 16.7755C89.0005 17.0555 88.4731 17.1955 87.8291 17.1955ZM88.5011 15.6415C88.8651 15.6415 89.1825 15.5389 89.4531 15.3335C89.7238 15.1282 89.8731 14.7362 89.9011 14.1575V13.5415H88.5011C88.1091 13.5415 87.8058 13.6395 87.5911 13.8355C87.3858 14.0315 87.2831 14.2882 87.2831 14.6055C87.2831 14.9135 87.3858 15.1655 87.5911 15.3615C87.8058 15.5482 88.1091 15.6415 88.5011 15.6415Z" fill="black"/>
<path d="M97.4016 17.2655C96.739 17.2655 96.1603 17.1582 95.6656 16.9435C95.1803 16.7195 94.7743 16.4209 94.4476 16.0475C94.121 15.6742 93.8783 15.2542 93.7196 14.7875C93.561 14.3115 93.4816 13.8215 93.4816 13.3175V13.0515C93.4816 12.3515 93.6263 11.6982 93.9156 11.0915C94.2143 10.4849 94.653 9.99486 95.2316 9.62152C95.8196 9.24819 96.5383 9.06152 97.3876 9.06152C98.0783 9.06152 98.6896 9.19686 99.2216 9.46752C99.7536 9.72886 100.178 10.0975 100.496 10.5735C100.813 11.0495 100.99 11.5955 101.028 12.2115H98.8296C98.7923 11.8662 98.6523 11.5769 98.4096 11.3435C98.167 11.1009 97.8263 10.9795 97.3876 10.9795C96.8183 10.9795 96.3983 11.1849 96.1276 11.5955C95.857 11.9969 95.7216 12.5289 95.7216 13.1915C95.7216 13.8169 95.8476 14.3349 96.0996 14.7455C96.361 15.1469 96.795 15.3475 97.4016 15.3475C97.8496 15.3475 98.1996 15.2309 98.4516 14.9975C98.7036 14.7642 98.853 14.4562 98.8996 14.0735H101.084C101.046 14.7082 100.864 15.2682 100.538 15.7535C100.22 16.2295 99.7863 16.6029 99.2356 16.8735C98.6943 17.1349 98.083 17.2655 97.4016 17.2655Z" fill="black"/>
<path d="M106.03 17.2655C105.377 17.2655 104.798 17.1535 104.294 16.9295C103.8 16.7055 103.384 16.4069 103.048 16.0335C102.712 15.6509 102.46 15.2262 102.292 14.7595C102.124 14.2835 102.04 13.7982 102.04 13.3035V13.0235C102.04 12.5195 102.124 12.0295 102.292 11.5535C102.46 11.0775 102.712 10.6529 103.048 10.2795C103.384 9.90619 103.79 9.61219 104.266 9.39752C104.752 9.17352 105.312 9.06152 105.946 9.06152C106.768 9.06152 107.458 9.24819 108.018 9.62152C108.588 9.98552 109.022 10.4662 109.32 11.0635C109.619 11.6609 109.768 12.3049 109.768 12.9955V13.7515H104.154C104.229 14.2742 104.416 14.6895 104.714 14.9975C105.022 15.2962 105.461 15.4455 106.03 15.4455C106.432 15.4455 106.763 15.3709 107.024 15.2215C107.295 15.0629 107.477 14.8622 107.57 14.6195H109.628C109.46 15.4035 109.054 16.0429 108.41 16.5375C107.776 17.0229 106.982 17.2655 106.03 17.2655ZM105.946 10.8815C105.461 10.8815 105.064 11.0215 104.756 11.3015C104.458 11.5722 104.266 11.9642 104.182 12.4775H107.626C107.552 11.9642 107.37 11.5722 107.08 11.3015C106.8 11.0215 106.422 10.8815 105.946 10.8815Z" fill="black"/>
</svg>
