<svg version="1.0" id="Слой_1" xmlns="http://www.w3.org/2000/svg" x="0" y="0" viewBox="0 0 1920 1080" xml:space="preserve"><style>.st0{fill:#b9b9b9}.st1{fill:#0c0c0c}.st2{fill:#737373}.st3{fill:#fdfdfd}.st4{fill:#f0f0f0}.st5{fill:#ececec}</style><path class="st0" d="M1470.8 1079.8H717.9c-1.6-2.3-1.3-4.9-1.4-7.5-3-67.7-5.6-135.4-5.7-203.1-.1-92.7-4.7-185.1-10.7-277.5-.1-2.2 1-6.1-2.8-5.8-2.7.2-2.1 3.6-2.1 5.8-2.3 76.2-8.8 152.4-6.5 228.8.2 5.1-.2 10.3-.3 15.4-3.3.9-5.1 3.2-6.3 6.3-10.7 27.7-24.3 54.1-38.2 80.3-15.7 29.7-32.8 58.5-58.1 81.5-18.2 16.5-39.5 25.5-63.2 29.4-25.9 4.3-51.8 0-77.5-2-10.7-.8-21.5-3-31.5-7.2-26.2-11-46.9-29.1-63.7-51.5-32.4-43.4-51.4-92.9-64.4-145.1-2.2-8.8-2.9-18.2-7.9-26.2 5-7 12.6-10.7 19.2-15.6 29.2-21.5 57.9-43.6 90.3-60.3 5.1-2.6 6.7-2.4 8.6 3.6 10.4 32.5 22.5 64.3 43.1 91.9 21.6 29 48.5 48.1 87.3 43.7 18.7-2.1 22.4-6.3 19.2-24.8-.2-1.1-.4-2.3-.6-3.4-4.7-28.5-9.8-56.9-14-85.4-6.9-47-12.4-94.1-15-141.5-2.7-51.7-4.8-103.5 4.9-154.8 3.8-20 8.4-39.9 22-55.9 20.8-24.3 57.6-31.7 90.5-19.5 31.5 11.7 56.9 31.9 81.1 54.6 7.9 7.4 11.9 15.9 15.3 25.6 16 45.6 39.5 86.9 73.6 121.3 56.5 57.1 125.9 87.6 205.2 96 74.5 7.8 146.2-4.5 215.3-33.1 58.2-24.1 97.7-66 118.1-125.6 16.6-48.4 17.7-98.2 12.3-148.4-4.9-46.2-15.9-91.2-32.1-134.7-1.3-3.6-1.3-6.4.8-9.6 19.2-28.7 40.6-55.3 69.7-74.6 33.1-21.9 62.9-17.5 89.1 12.2 13.6 15.5 23.1 33.3 30.8 52.1 25.8 63.5 50 127.6 76.4 190.9 18.8 45 36.7 90.5 63.1 131.9 5.8 9.1 10.3 9.3 16.1 0 .9-1.4 1.9-2.9 2.7-4.4 26.2-55 31.8-112.3 17.7-171.4-7.4-31.1-20.1-60.1-37.1-87.2-3-4.8-2.4-7.6 2.4-10.2 11.5-6.4 22.8-13 34.2-19.5 10.2-5.8 20.6-11.1 32.5-12.7 13.9-1.9 20.4 1.1 25.9 13.6 29.7 67.9 54.5 137.5 74.7 208.8 1.1 2 .1 0 1.2 3.7.6 4.8 1.1 9.6 1.7 14.5-4.6 9-3 19-4.8 28.4-5.7 30.6-11 61.3-23.2 90.2-9.2 21.6-20 42.2-37.1 58.7-11.5 11.1-24 20.7-41.6 17.4-20.6-3.8-41.4-6.8-61.2-14.4-50.6-19.3-91-52.1-123.9-94.5-14.6-18.8-27.9-38.6-39.2-59.8-12.8-24.1-29.4-46.1-41.6-70.6-1.1-2.3-3-4.2-5.8-4.6-.5-.8-.9-1.7-1.4-2.5-1.9-2.5-.9-1.5-2.2-4.2-1.7-3.4-3.3-6.8-8.1-4.5-1.6 1.3-1.6.3-2.1 2.9 1.1 5.7 2.2 11.4 3.3 17.2 1.1 2.3 1.1 2.3 1.2 3.7.2 1.1.4 2.1.6 3.2.3 1.4.3 1.4.5 3.5.2 1.4.5 2.9.7 4.3 1.1 2.6 1.1 1.6 1.6 4.5.7 3.3 1.3 6.7 2 10-3.6 5.9-.4 11.7.5 17.4 3.5 21.6 7.2 43.2 20.4 61.7 4.9 7 9.1 14.4 13.5 21.8 6.5 10.7 13.5 21.3 10.4 34.9-.7 3.3-1.3 6.7-1.4 10.1-1.1 44.8-4.6 89.4-6.6 134.1-1.3 29.9-2.5 59.8-3.5 89.8-1.1 32.2-2.6 64.4-3.4 96.6-1 40-.6 80-1.8 119.9-.4 10.4.8 20.9 1.2 31.4z"/><path class="st1" d="M424.3 1070.8c-45.8-14.7-81.2-43.1-108.9-81.7-34.5-48.1-54-102.6-67-159.8-.8-3.3-1.1-6.8-2-10-1.1-3.8-1.7-8.6-4.3-10.9-3.5-3.1-6.2 2.3-9.3 3.6-9.7 4-18.5.5-25.8-4.7-10.1-7.2-20.5-7-31.7-5.7-8.2.9-13.7 4.1-18.2 11.7-9.8 16.5-21.4 31.7-38 42.3-4.7 3-9.6 5-15.1 5.7-7.5.9-14.4-1.4-17.6-8.1-3.4-7.2-6.2-12.2-14.9-6.9-1 .6-2.8.2-4.2-.1-16.1-3.8-26.4-28.1-18-42.1 8.9-14.9 20.7-27.2 34.5-37.7 4.3-3.3 6.7-6.5 7.1-12.5 1-14.6 5-28.8 13.3-41 12.7-18.6 30.8-26.9 53.1-24.2 15.5 1.9 25-6.8 34.6-16.5 1.8-1.8 2.5-4.1 1.4-6.3-4.3-9.4.5-15.9 6.7-21.9 2.8-2.8 5.7-5.8 9.1-7.6 14.3-7.4 24.1-18.7 31.5-32.7 23.3-44 82.5-35.2 104.8-2.8 15.4 22.5 28.3 46.1 34.6 72.9 1.8 7.8 2.8 15.7 1.9 23.7-.5 4.7-.2 7.6 6.2 6.1 14.9-3.5 20.1 0 24.9 14.3 10.6 31.3 21.3 62.7 41.1 89.8 13.1 18 28.5 32.9 51.7 36.5.8.1 1.7.5 2.5.6 16 2.2 17.3.5 14.3-15.3-6.4-33.1-11.3-66.4-15.6-99.8-9.5-72.9-16.6-146-13.2-219.7 1.6-35.1 5-70.1 20-102.7 14.5-31.6 40-48.2 73.4-53.1 35.7-5.2 66.4 8.9 95.4 27.7 7.6 5 14.7 10.9 22 16.3 2 1.5 4.1 4.4 6.6 2.8 2.5-1.7.4-4.8 0-7.1-7-35.1-11.4-70.5-10.3-106.4 1.8-60.6 17.5-116.7 54.7-165.5 26.1-34.2 59.5-59.6 97.5-79.3 45.3-23.4 93.1-37.6 144.2-38.2 60.3-.7 115.9 16.9 166.8 48.8 59.4 37.2 107.1 85.9 141.9 147 3.3 5.8 5.1 6.1 9.2.5 17.4-23.8 36.5-46.2 60.9-63.3 22.2-15.5 46.2-25.2 73.9-18.8 21.4 4.9 37 18.5 50.4 35 18.5 22.9 30 49.6 40.5 76.7 27 69.9 54.5 139.7 84.3 208.4 9.3 21.5 18.8 42.8 28.3 64.2 1 2.1 1 5.8 4.1 5.6 3-.2 3.1-3.5 4-5.9 23-65.9 16.2-129.8-13.6-191.9-5.3-11.1-11.4-21.8-18.2-31.9-4.4-6.6-5.7-13.1-1-19.8 2.3-3.3 1.1-5.5-.8-8.4-9.8-15.7-19.8-31.2-24.9-49.4-3.2-11.6-.7-21.4 6.8-30.2 14.8-17.3 33.1-30.6 51.5-43.6 6.1-4.3 12-1.7 17.6 1.6 4.2 2.5 7.6 2.9 13.1 1 36.5-12.3 73.5-19.7 110.8-2.7 6.1 2.8 12.4 5.8 14.4 13.5 1 3.9 5 3.1 8 3.2 7.8.2 15.3 1.7 22.6 4.4 5.2 1.9 9.9 5 12.9 9.5 8.1 11.8 14.4 24.6 17.6 38.7 1.8 7.9-4.1 14.6-12.8 16.1-15.9 2.7-30.6-1.8-42.9-10.7-12.3-8.9-22.1-7.5-33.5.6-7.6 5.5-16.6 8.9-24.3 14.2-3.6 2.5-9.8-2.9-10.3 3.2-.2 3.1 4.4 6.3 6.2 9.9 13.9 26.9 24.1 55.4 34.6 83.6 18.1 48.6 35.3 97.5 48.1 147.8 3.4 13.4 3.5 26.1 1.2 39.6-6 35.7-10.2 71.7-21.7 106.3-8.5 25.6-19.2 50.1-38.9 69.4-18.2 17.8-39.8 27.2-65.7 29-74.9 5.1-134.7-24.5-184.5-78.3-1.9-2-3.5-5.6-6.6-4.7-3.6 1-1.8 4.9-2 7.5-2.6 58-5.3 115.9-7.5 173.9-3.5 88.3-6.2 176.6-5.6 265 0 3.6-1.1 7.4 1.3 10.7h-22.3c.1-2.8.4-5.7.4-8.5.3-31.4.3-62.8.9-94.2 1.4-73.9 4.1-147.8 7.1-221.7 2-48.8 3.8-97.5 6.9-146.2.5-8.5-.6-15.8-5.9-23.2-18.8-26.7-33-55.9-46.2-85.7-5.5-12.5-7.7-26-13.2-38.4-.7-3.3-1.3-6.7-2-10-.4-1.9-.4-.9-1.6-4.5-.2-1.4-.5-2.9-.7-4.3-.2-1-.2-1-.5-3.5-.2-1.1-.4-2.1-.6-3.2-1.1-3.4-.1-.4-1.2-3.7-1.1-5.7-2.2-11.4-3.3-17.2.4-1.6-.6-1.6 2.1-2.9 4.8-2.3 6.4 1.2 8.1 4.5 1.2 1.8 1.2 2.8 2.2 4.2.5.8.9 1.7 1.4 2.5-.4 2.8 1.4 4.9 2.4 7.2 7 15.6 14.6 30.9 20.9 46.8 18.2 45.9 40.6 89.5 72.9 126.9 46.8 54.1 103.3 87.6 178.2 78.9 24.1-2.8 44.8-11.9 59.1-32 16.2-22.6 24.9-48.5 31.5-75.3 7.2-28.9 9.9-58.5 15-87.7.9-5.1 2.1-10.8-1.6-15.6-.6-4.8-1.1-9.6-1.7-14.5-1-2.7 0-1.7-1.2-3.7-20.2-71.3-45-140.9-74.7-208.8-5.5-12.6-12-15.5-25.9-13.6-11.9 1.6-22.3 6.9-32.5 12.7-11.4 6.5-22.7 13.1-34.2 19.5-4.8 2.7-5.4 5.4-2.4 10.2 17 27.1 29.7 56.1 37.1 87.2 14.1 59.1 8.5 116.4-17.7 171.4-.7 1.5-1.8 2.9-2.7 4.4-5.8 9.2-10.3 9.1-16.1 0-26.4-41.4-44.2-86.9-63.1-131.9-26.4-63.2-50.6-127.4-76.4-190.9-7.7-18.8-17.2-36.6-30.8-52.1-26.2-29.8-56-34.2-89.1-12.2-29.1 19.3-50.6 45.9-69.7 74.6-2.1 3.2-2.2 6-.8 9.6 16.2 43.6 27.2 88.5 32.1 134.7 5.4 50.1 4.3 100-12.3 148.4-20.4 59.7-59.9 101.5-118.1 125.6-69.1 28.6-140.8 41-215.3 33.1-79.3-8.3-148.7-38.9-205.2-96-34.1-34.5-57.6-75.7-73.6-121.3-3.4-9.7-7.4-18.1-15.3-25.6-24.2-22.7-49.6-42.9-81.1-54.6-32.9-12.2-69.8-4.8-90.5 19.5-13.7 16-18.3 35.9-22 55.9-9.7 51.3-7.6 103.1-4.9 154.8 2.5 47.4 8 94.6 15 141.5 4.2 28.5 9.3 57 14 85.4.2 1.1.4 2.3.6 3.4 3.2 18.4-.5 22.6-19.2 24.8-38.7 4.4-65.6-14.6-87.3-43.7-20.6-27.6-32.7-59.4-43.1-91.9-1.9-6-3.5-6.2-8.6-3.6-32.4 16.7-61.1 38.8-90.3 60.3-6.6 4.9-14.2 8.6-19.2 15.6-6 3.4-10.5 7.4-8.9 15.5 10.1 51.1 25.9 100 53.6 144.5 16.5 26.5 36.5 49.7 62.3 67.4 33.8 23.2 71.5 30.7 112.1 29.2 52.5-2 93.1-25.2 125.1-65.8 20.2-25.6 34.6-54.2 46.6-84.3 9.3-23.3 17.5-46.9 20.1-72.2.1-5.1.5-10.3.3-15.4-2.3-76.4 4.2-152.5 6.5-228.8.1-2.2-.6-5.6 2.1-5.8 3.8-.2 2.6 3.6 2.8 5.8 6 92.4 10.6 184.8 10.7 277.5.1 67.7 2.7 135.4 5.7 203.1.1 2.5-.2 5.2 1.4 7.5h-22.3c.2-1.4.6-2.8.5-4.1-1.5-43.7-3-87.3-4.4-131-.3-8.9 0-17.8 0-28.8-4.4 4.2-5.8 6.7-7.1 9.5-16.5 35.2-34.6 69.3-62.1 97.5-29.4 30.1-64 49.8-106.6 53.8-17.3 1.1-34.6 2.2-51.9 1.5M1296 228.4c-1.3-7.2-4.8-13.4-8.4-19.5-37.2-64-88.1-114.1-153.1-149.3-37.6-20.3-77.8-32.4-120.8-34.3-59.5-2.7-114.1 13.7-165.2 42.8-56.7 32.3-97 78.7-115.2 141.9-23.6 82.1-11.7 162.4 15.8 241.5.9 2.5.9 2.5 2.1 4.6l.9 2.4c13.3 39.9 34.6 75.1 63.7 105.3 58.5 60.7 131.6 89 214.4 93.9 64.1 3.8 125.6-8.6 184.8-33 54.7-22.5 90.8-61.8 108.5-118.2 10.5-33.4 13.2-67.8 12-102.5-.3-8.1 1.6-16.5-2-24.4l-1.2-13.5c-.4-2-.4-2-.4-3.7l-1.2-6.6c-.8-2.7.2-1.7-.6-3.7-.3-2.8-.7-5.6-1-8.4-1.2-3.7-.2-1.7-.9-4.8-.7-4.1-1.5-8.3-2.2-12.4-1.1-4.5-1.1-3.5-1.6-6.4l-1.8-9c-.7-2-.7-2-1-3.6-.8-3.4-1.6-6.7-2.4-10.1-1.3-3.3-.3-2.3-1.1-3.6-1.5-9.4-4.9-18.2-7.7-27.2-.5-2.4-.5-1.4-1.7-4.7-.6-1.9-1.2-3.8-1.7-5.6-1.1-3.1-.1-1.1-1.7-4.6-.7-4-2-7.7-4.3-11M193.2 731c6.8.5 13.7.9 20.5 1.6 2.3.2 5.8 0 5.4 3.7-.3 2.8-2.7 4.2-5.6 4.3-4 .2-8 .3-12 .4-41 1.3-78.8 12.2-111.3 38.2-11.4 9.1-21.4 19.8-28.9 32.4-4.7 7.9 1.5 12.5 5.8 16.8 5.1 5 8.1-1 10.8-4 6.8-7.5 14.5-13.7 23.4-18.5 19.5-10.4 40.8-14.7 62.3-17.5 17.6-2.3 35.6-6.4 51.4 6.9 4.7 3.9 11 5.7 16.2-.1 4.9-5.4 12.6-10.2 5.7-19.3-1.3-1.7-1.5-4.5.9-6.2 2.3-1.6 4.2-.2 6.1 1.3 3.5 2.9 7.5 5.3 10.7 8.5 5.4 5.3 9.5 5.2 15.8.4 28.7-22.1 57.7-43.9 88.8-62.6 2.1-1.3 4.8-2.3 5.4-5.2 1.8-9.2 4.3-18.2 2.6-27.9-5-28.9-17.9-54.2-35.4-77.1-21.6-28.1-62.5-25-79.8 5.9-7.8 14.1-17.8 25.7-32 33.6-3.7 2-6.8 5.1-10.2 7.8-1.7 1.4-2.3 2.9-1 5.1 7.3 12.5 26.3 15.9 37.4 6.6 11.4-9.5 19-21.9 26.7-34.3 5.2-8.4 10.9-8.6 16.3-.4 7.2 11 14 22.2 21 33.3 1.3 2 4.3 4.2 1.5 6.5-2.8 2.2-5.3-.2-7.3-2.4-5.4-5.9-11.1-11.6-15.8-18-4.8-6.5-7.5-4.8-11 .9-6.3 10.3-14.1 19.4-23.5 27-10.2 8.2-22.2 12.4-33.3 5.4-11.9-7.5-18.6-3.8-26.1 5.3-2.8 3.4-6.9 4.9-5.4 10.9 1.4 5.8-3.9 9.3-9.9 7.6-4.1-1.2-8.1-2.8-12.2-3.8-22.3-5.5-40.1.3-50.9 16.5-4 6-6.3 12.8-8.4 19.6-.8 2.7-2.7 6-.4 8.1 2.1 2 4.8-.9 6.8-1.9 24.9-12.4 51.6-15.6 78.9-15.4zm1534.6-519.7c-2.6-4.4-6.8-8.1-2.7-12.7 4-4.5 8.9-2.4 13.6-1.3 4.7 1.1 9.7 1.8 14 3.8 5.8 2.5 10.4.8 15.3-2.1 10.8-6.4 21.9-12.2 32.6-18.9 5.5-3.4 9.7-3 14.8.7 10.2 7.3 20.8 14.2 33.4 17.1 4.8 1.1 10.6 3.7 13.9.3 3.5-3.6-1.8-8.2-3-12.4-6.1-21.3-21-28.6-42.3-27.2-23.3 1.6-45.7 7-67.8 14-5.6 1.8-10.7 2.5-12.6-4-1.8-6.1 3-8.4 7.9-10.1 16.6-5.4 33.3-10 50.6-12.6 1.8-.3 4.5.6 4.5-2.4 0-1.8-1.6-2.9-3.3-3.6-7.7-3-15.4-6-23.8-6.8-19.3-1.9-38.2.3-57 4.5-3.2.7-8.5.4-9 3.5-.6 4.2 5 4.3 7.9 6.1 2.4 1.5 5 2.8 7.5 4.1 9.9 5.4 11.1 11.1 4.3 19.9-8.7 11.3-26.8 15.2-41.3 8.7-2.5-1.1-4.8-3.8-7.6-.9-2.8 3.1-.5 5.9.9 8.6 7.2 14 6 19-6.5 27.7-3.7 2.6-7.5 3.1-10.8-.4-3.3-3.4-2.3-7.3.8-9.8 6-5.1 4.9-9.9 1-15.5-3.7-5.3-5.2-11-.3-16.5 3.8-4.2 7.9-8.2 12.2-12 4.6-4.1 9.3-4.2 13.2 1.2 5.4 7.5 12.7 6.3 20.1 4.7 1.6-.4 3.5-1.3 3.7-3.1.3-2.2-2-2.4-3.5-3.1-11.9-6.2-23.8-12.3-35.6-18.7-3-1.6-5.2-1.4-7.8.5-14.7 10.9-29.3 21.8-41.8 35.2-7 7.6-7.7 15.4-4.6 24.5 4.4 12.5 10.8 23.9 18 34.9 6.6 10.1 6.2 9.7 16.6 4 23.2-13 45.1-29.5 74.5-29.9zM144 807.1c-17.3 3.9-31.6 8.3-44.1 17.1-4.5 3.2-5.7 16.4-1.8 20.4 5 5.1 9.7.7 13.7-1.8 13.2-8.5 22.3-20.7 32.2-35.7z"/><path class="st2" d="M1441.4 461.9c5.4 12.4 7.6 25.9 13.2 38.4 13.2 29.8 27.3 59.1 46.2 85.7 5.2 7.4 6.4 14.7 5.9 23.2-3.1 48.7-4.9 97.5-6.9 146.2-3 73.9-5.7 147.7-7.1 221.7-.6 31.4-.6 62.8-.9 94.2 0 2.8-.3 5.7-.4 8.5h-20.6c-.5-10.5-1.6-21.1-1.3-31.6 1.3-40 .9-80 1.8-119.9.8-32.2 2.3-64.4 3.4-96.6 1-29.9 2.2-59.8 3.5-89.8 2-44.7 5.5-89.3 6.6-134.1.1-3.4.7-6.8 1.4-10.1 3.1-13.6-4-24.2-10.4-34.9-4.4-7.3-8.6-14.8-13.5-21.8-13.1-18.5-16.8-40.1-20.4-61.7-.9-5.7-4-11.5-.5-17.4z"/><path class="st3" d="M515.8 1076.7c42.6-4 77.1-23.7 106.6-53.8 27.5-28.2 45.6-62.4 62.1-97.5 1.3-2.8 2.7-5.4 7.1-9.5 0 11-.2 19.9 0 28.8 1.4 43.7 3 87.3 4.4 131 0 1.4-.3 2.8-.5 4.1H515.4c.2-1 .3-2 .4-3.1z"/><path class="st2" d="M688.4 835.9c-2.6 25.2-10.8 48.8-20.1 72.2-12 30.1-26.4 58.7-46.6 84.3-32 40.6-72.6 63.8-125.1 65.8-40.6 1.5-78.3-6-112.1-29.2-25.8-17.7-45.8-41-62.3-67.4-27.7-44.5-43.5-93.5-53.6-144.5-1.6-8.1 2.8-12.1 8.9-15.5 5 8 5.7 17.4 7.9 26.2 13 52.2 32 101.7 64.4 145.1 16.7 22.5 37.5 40.6 63.7 51.5 10 4.2 20.9 6.4 31.5 7.2 25.8 2 51.6 6.3 77.5 2 23.8-4 45.1-12.9 63.2-29.4 25.3-23 42.4-51.9 58.1-81.5 13.9-26.2 27.4-52.6 38.2-80.3 1.3-3.3 3.1-5.6 6.4-6.5zM1823.7 473.2c3.8 4.8 2.5 10.5 1.6 15.6-5 29.2-7.8 58.8-15 87.7-6.7 26.7-15.4 52.7-31.5 75.3-14.3 20-35 29.2-59.1 32-74.9 8.7-131.5-24.8-178.2-78.9-32.4-37.4-54.8-81-72.9-126.9-6.3-15.9-13.9-31.2-20.9-46.8-1-2.3-2.8-4.4-2.4-7.2 2.9.3 4.7 2.3 5.8 4.6 12.2 24.5 28.8 46.5 41.6 70.6 11.3 21.2 24.6 41 39.2 59.8 32.9 42.4 73.2 75.2 123.9 94.5 19.8 7.6 40.6 10.6 61.2 14.4 17.6 3.2 30-6.4 41.6-17.4 17.2-16.5 28-37.1 37.1-58.7 12.2-28.9 17.5-59.7 23.2-90.2 1.8-9.5.3-19.5 4.8-28.4z"/><path class="st4" d="M1301.1 240.5c2.3 3.3 3.6 7.1 4.3 11 1.6 3.5 1.6 3.5 1.7 4.6.6 1.9 1.2 3.8 1.7 5.6 1.1 3.2 1.1 2.2 1.7 4.7 2.8 9 6.2 17.9 7.7 27.2.8 2.3-.2.3 1.1 3.6.8 3.4 1.6 6.7 2.4 10.1.3 1.6.3.6 1 3.6l1.8 9c.5 3 .5 2 1.6 6.4.7 4.1 1.5 8.3 2.2 12.4.7 2.1-.3.1.9 4.8.3 2.8.7 5.6 1 8.4.8 2-.2 1 .6 3.7l1.2 6.6c0 2.7 0 .7.4 3.7l1.2 13.5c-.6 9.1-5.7 17.4-6.4 26-2 25.8-2.3 51.6-6.6 77.3-4.6 27.1-15 51.5-31.7 72.3-28 34.8-66.5 55-108.5 67.8-32.6 9.9-66.1 16.1-100.1 20-27.7 3.2-55.1 3.7-82.4-1.2-38.1-6.8-73.4-21.2-106.1-42.1-49-31.2-88.5-72-122.4-118.7-5.5-7.6-11.5-15-17.2-22.5l-.9-2.4c-1.2-2.1-1.2-2.1-2.1-4.6-27.5-79-39.4-159.4-15.8-241.5 18.2-63.2 58.4-109.7 115.2-141.9 51.1-29.1 105.7-45.4 165.2-42.8 43.1 1.9 83.3 14 120.8 34.3 65 35.2 115.9 85.3 153.1 149.3 3.6 6.1 7.1 12.4 8.4 19.5m-458.4-51.6c3.3-4.6 3.3-4.6 2.2-8.5-.1-.5-.3-.9-.6-1.3-5.4-2.9-2.4-1.9-8.8-4.1-1-.2-1.9-.5-2.9-.7-4.6-1.1-4.6-1.1-9.1-2.7-3.2-1.6-6.5-3.2-9.7-4.8-3.8-2.7-5.8-1.7-8.8-.2-.4.2-.8.4-1.1.8-1.9 1.8-.9.8-2.9 3.4-.8 1-1.6 2.1-2.4 3.1-1.5 2.3-1.5 2.3-4.4 5.5-5.3 6.8-10.7 13.7-16 20.5-2.1 2.3-1.1 1.3-2.9 3.5-3 4.4-8.6 7.9-5.4 14.6 2.2 5.5 5.6 6.3 10 2.4 5-5.9 9.9-11.9 14.9-17.8 1.3-2.3.3-1.3 2.7-3.6 5.5-4.7 7.3-12.9 14.8-15.7 8.8 2 11.8 3 17.1 5.7 1.6.3 3.1.6 4.7.9 5.1 1.4 4.1 1.4 7.7-.3.2-.1.6-.4.9-.7zm238.7 160c.3-2.8 1.6-5.7-1.6-7.8-3.6-2.3-5.6 1-8.3 2.3-6.6 3.1-6.6 8.3-4.2 13.6 2.7 6 .3 8.5-4.9 11.1-17.4 8.6-34.5 17.6-51.8 26.5-16.6 8.6-33.5 15.3-52.9 13.3-9-.9-18.3.5-27.3 1.6-5.5.7-8.5-.8-10.7-5.8-3.4-7.8-7.3-15.5-12.4-22.4-2.4-3.2-5-5.7-9.3-3.1-3.6 2.2-4.9 4.9-3.9 9.3 4.5 20.4 17.9 35.4 30.5 50.8 4.3 5.2 10.1 3.6 11.2-1.9 1.6-8 6.6-8 12.3-8.2 6.8-.2 13.8-1.1 20.5-.5 11.5 1 21.9-1.8 32.3-6.5 22.8-10.5 44.9-22.5 67.2-33.9 5.4-2.8 8.7-2.9 10.9 3.8 2.1 6.5 5 12.7 8.1 18.8 2.8 5.6 8 6.4 13.1 3.9 5-2.5 3.8-6.5 1.9-10.9-6.4-14.6-12.3-29.5-18.5-44.2-1.3-3.1-2.7-6.3-2.2-9.8zm-271.6-7.7c9.5 0 18.8-1.4 27.9-3.5 15.6-3.7 29.5-10.8 38.6-24.8 13.5-20.8 11.7-48-4.3-68.8-16.7-21.7-40.4-29.6-65.2-20.9-15.2 5.3-29.7 13.3-38.1 27.4-7.4 12.5-10.3 27.2-11.2 41.8-1.3 21.9 8.6 38.1 27.9 45.1 7.8 2.8 16.1 3.7 24.4 3.7zm296.5-216.2c-31.8-1.8-62.5 33.1-57.3 65.3 3.9 24.2 20.5 38 40.9 48.2 14.4 7.2 29.2 7.2 43.7 0 19.5-9.7 31.5-25.7 38.1-46.2 6.9-21.4 2-37.5-15.8-50.6-14.7-10.7-31.5-15.6-49.6-16.7zm-2-23.3c-.1-2.1-.8-3.9-2.4-5.3-8.3-7.4-17-14.3-27.5-18.6-4.9-2-9.6-1.5-14 .9-14.9 8.1-27.8 18.8-40.4 30-2.3 2-4.3 4.9-2.7 8.4 1.1 2.4 2.6 4.8 5.4 5 3.6.3 6.4-1.7 9.1-4 9.5-8.2 19.5-15.8 29.8-22.9 5.3-3.6 9.9-3.5 14.8.2 5.2 4 10.4 8 15.6 11.9 2.7 2 5.6 2.5 8.8.8 2.6-1.5 3.5-3.6 3.5-6.4z"/><path class="st5" d="M193.2 731c-27.4-.2-54 3-78.9 15.5-2.1 1-4.7 3.9-6.8 1.9-2.3-2.1-.5-5.4.4-8.1 2.1-6.8 4.4-13.6 8.4-19.6 10.8-16.1 28.6-22 50.9-16.5 4.1 1 8.1 2.6 12.2 3.8 5.9 1.7 11.2-1.8 9.9-7.6-1.4-6.1 2.6-7.6 5.4-10.9 7.5-9.1 14.2-12.8 26.1-5.3 11.1 7 23.1 2.8 33.3-5.4 9.5-7.6 17.3-16.7 23.5-27 3.5-5.8 6.3-7.4 11-.9 4.7 6.4 10.5 12.1 15.8 18 2 2.2 4.5 4.6 7.3 2.4 2.9-2.3-.2-4.5-1.5-6.5-7-11.1-13.8-22.4-21-33.3-5.4-8.2-11.1-8-16.3.4-7.7 12.4-15.4 24.7-26.7 34.3-11 9.2-30.1 5.8-37.4-6.6-1.3-2.2-.8-3.7 1-5.1 3.3-2.7 6.5-5.7 10.2-7.8 14.3-7.8 24.2-19.5 32-33.6 17.2-30.8 58.2-34 79.8-5.9 17.6 22.9 30.4 48.2 35.4 77.1 1.7 9.7-.8 18.7-2.6 27.9-.6 2.9-3.2 3.9-5.4 5.2-31.1 18.8-60.1 40.5-88.8 62.6-6.3 4.9-10.5 4.9-15.8-.4-3.2-3.2-7.2-5.6-10.7-8.5-1.9-1.5-3.8-2.9-6.1-1.3-2.3 1.6-2.1 4.5-.9 6.2 7 9.2-.8 13.9-5.7 19.3-5.2 5.8-11.5 4-16.2.1-15.9-13.3-33.9-9.2-51.4-6.9-21.5 2.8-42.8 7.1-62.3 17.5-8.9 4.7-16.6 10.9-23.4 18.5-2.7 3-5.8 9-10.8 4-4.3-4.3-10.6-8.9-5.8-16.8 7.6-12.7 17.5-23.3 28.9-32.4 32.5-26 70.3-36.9 111.3-38.2 4-.1 8-.2 12-.4 2.9-.1 5.3-1.5 5.6-4.3.4-3.8-3-3.5-5.4-3.7-6.8-.8-13.6-1.2-20.5-1.7zM1727.8 211.3c-29.4.4-51.3 17-74.6 29.9-10.3 5.7-10 6.1-16.6-4-7.2-11.1-13.6-22.4-18-34.9-3.2-9.1-2.5-16.9 4.6-24.5 12.6-13.5 27.2-24.3 41.8-35.2 2.6-1.9 4.8-2.2 7.8-.5 11.8 6.4 23.8 12.5 35.6 18.7 1.4.7 3.7.9 3.5 3.1-.2 1.8-2.1 2.8-3.7 3.1-7.4 1.6-14.8 2.9-20.1-4.7-3.9-5.4-8.5-5.3-13.2-1.2-4.3 3.8-8.4 7.8-12.2 12-4.9 5.4-3.4 11.2.3 16.5 3.9 5.6 5 10.4-1 15.5-3 2.6-4.1 6.4-.8 9.8 3.3 3.4 7.1 2.9 10.8.4 12.6-8.7 13.7-13.7 6.5-27.7-1.4-2.7-3.7-5.5-.9-8.6 2.8-3 5-.3 7.6.9 14.5 6.5 32.7 2.6 41.3-8.7 6.8-8.9 5.5-14.5-4.3-19.9-2.5-1.4-5.1-2.6-7.5-4.1-3-1.8-8.6-1.9-7.9-6.1.4-3 5.8-2.8 9-3.5 18.8-4.2 37.7-6.4 57-4.5 8.4.8 16 3.8 23.8 6.8 1.7.6 3.3 1.7 3.3 3.6 0 3.1-2.8 2.2-4.5 2.4-17.3 2.6-34 7.2-50.6 12.6-5 1.6-9.8 4-7.9 10.1 2 6.5 7 5.7 12.6 4 22.1-7 44.5-12.5 67.8-14 21.3-1.4 36.2 5.8 42.3 27.2 1.2 4.2 6.6 8.7 3 12.4-3.3 3.4-9.1.8-13.9-.3-12.6-2.9-23.2-9.7-33.4-17.1-5.1-3.6-9.3-4.1-14.8-.7-10.6 6.7-21.8 12.5-32.6 18.9-4.9 2.9-9.5 4.6-15.3 2.1-4.4-1.9-9.3-2.7-14-3.8-4.7-1.1-9.6-3.2-13.6 1.3-4.1 4.5.2 8.3 2.8 12.7z"/><path class="st0" d="M752.1 458.5c5.7 7.5 11.7 14.9 17.2 22.5 33.9 46.7 73.4 87.5 122.4 118.7 32.7 20.9 68.1 35.2 106.1 42.1 27.2 4.9 54.7 4.4 82.4 1.2 34-4 67.5-10.1 100.1-20 42-12.8 80.5-33 108.5-67.8 16.7-20.8 27.1-45.2 31.7-72.3 4.4-25.7 4.7-51.5 6.6-77.3.7-8.7 5.8-16.9 6.4-26 3.6 7.9 1.7 16.3 2 24.4 1.2 34.8-1.5 69.1-12 102.5-17.7 56.4-53.9 95.6-108.5 118.2-59.3 24.4-120.8 36.8-184.8 33-82.8-4.9-155.9-33.2-214.4-93.9-29.1-30.2-50.4-65.4-63.7-105.3z"/><path class="st5" d="M144 807.1c-9.9 15.1-19 27.3-32.2 35.7-4 2.5-8.7 7-13.7 1.8-3.9-4-2.7-17.2 1.8-20.4 12.5-8.9 26.7-13.2 44.1-17.1z"/><path class="st1" d="M1076.4 336.6c-.5 3.6.9 6.7 2.2 9.9 6.2 14.7 12.1 29.6 18.5 44.2 1.9 4.5 3.2 8.4-1.9 10.9s-10.3 1.8-13.1-3.9c-3.1-6.1-6-12.4-8.1-18.8-2.2-6.8-5.4-6.6-10.9-3.8-22.3 11.4-44.4 23.4-67.2 33.9-10.4 4.7-20.7 7.5-32.3 6.5-6.8-.6-13.7.3-20.5.5-5.7.2-10.7.2-12.3 8.2-1.1 5.5-6.9 7.2-11.2 1.9-12.6-15.4-26-30.4-30.5-50.8-1-4.4.3-7.1 3.9-9.3 4.3-2.6 6.9-.1 9.3 3.1 5.1 6.9 8.9 14.6 12.4 22.4 2.2 5 5.2 6.5 10.7 5.8 9-1.2 18.3-2.5 27.3-1.6 19.5 1.9 36.3-4.8 52.9-13.3 17.2-8.9 34.4-17.9 51.8-26.5 5.2-2.6 7.6-5.1 4.9-11.1-2.4-5.3-2.4-10.5 4.2-13.6 2.7-1.3 4.7-4.6 8.3-2.3 3.1 1.9 1.9 4.9 1.6 7.7zM804.8 328.9c-8.3 0-16.6-.9-24.4-3.8-19.3-7-29.2-23.1-27.9-45.1.9-14.7 3.8-29.3 11.2-41.8 8.4-14.1 22.8-22 38.1-27.4 24.7-8.7 48.4-.8 65.2 20.9 16.1 20.8 17.9 48 4.3 68.8-9.1 14-23 21.1-38.6 24.8-9 2.2-18.4 3.6-27.9 3.6zm58.5-68.9c-2.2-13.8-10.1-23.6-21.2-31.6-22.9-16.5-69.8 3.4-72 36.9-1.1 4.7-1.1 3.7-1.7 8.1-1.2 3.8-1.1 7.7-.2 11.5-.2 15.9 8.6 26.2 24 27.8 13.4 1.5 26.7.8 39.9-2.8 25.2-6.8 38.6-28.1 31.2-49.9zM1101.3 112.7c18.1 1.1 34.9 6 49.6 16.8 17.8 13 22.7 29.1 15.8 50.6-6.6 20.5-18.5 36.5-38.1 46.2-14.5 7.2-29.3 7.3-43.7 0-20.3-10.2-37-24-40.9-48.2-5.1-32.4 25.5-67.2 57.3-65.4zm-41.5 51.1c-4.3 13.4 1.7 23.7 10 33.1 21.1 23.9 49 25.5 68.2 4.1 5.4-6 9.5-12.8 12.6-20.2 7.2-17.7 5-28.7-6.8-37.2-2.6-3.3-5.9-5.5-9.8-7-1.9-1.7-1.9-1.7-4.5-2.3-1.7-.6-3.4-1.2-5.1-1.9-1.4-.5-2.4-.5-3.6-1.3-2.5-.5-4.9-1-7.4-1.6-4.4-1.6-4.4-.6-9.8-1.8-3.9-.4-7.8-.9-11.6.3-3-.1-4-.1-6.5 1.3-14 7.5-22.4 19.1-25.7 34.5zM1099.3 89.4c0 2.8-.9 4.9-3.5 6.3-3.2 1.7-6.1 1.2-8.8-.8-5.3-3.9-10.4-7.9-15.6-11.9-4.9-3.8-9.5-3.8-14.8-.2-10.4 7.1-20.3 14.7-29.8 22.9-2.7 2.3-5.4 4.4-9.1 4-2.8-.3-4.3-2.7-5.4-5-1.6-3.5.5-6.4 2.7-8.4 12.6-11.1 25.6-21.9 40.4-30 4.4-2.4 9.1-2.9 14-.9 10.5 4.3 19.1 11.2 27.5 18.6 1.6 1.5 2.4 3.3 2.4 5.4zM839.4 166.9c.3.4.5.8.6 1.3 1.1 2.9 1.1 4.9-2.2 8.5-.3.3-.7.5-1.1.7-2.6 1.7-3.6 1.7-7.7.3-1.6-.3-3.1-.6-4.7-.9-6.3-2.8-10.3-3.8-17.1-5.8-7.5 2.8-9.2 11.1-14.8 15.7-1.4 2.3-1.4 1.3-2.7 3.6-5 5.9-9.9 11.9-14.9 17.8-4.8 3.8-6.8 3.8-10-2.4-3.1-6.7 2.4-10.2 5.4-14.6 1.8-2.2.8-1.2 2.9-3.5 5.3-6.8 10.7-13.7 16-20.5 2.9-3.2 1.9-2.2 4.4-5.5.8-1 1.6-2.1 2.4-3.1 2.1-2.6 1.1-1.6 2.9-3.4.3-.3.7-.6 1.1-.8 4-2.4 5-2.4 8.8.2 3.2 1.6 6.5 3.2 9.7 4.8 5.5 1.6 3.5 1.6 9.1 2.7 1 .2 1.9.5 2.9.7 6.6 2.3 6.6 2.3 9 4.2z"/><path class="st3" d="M770.1 265.3c2.2-33.5 49.1-53.4 72-36.9 11.1 8 19 17.8 21.2 31.6-.4 1.9-.9 3.8-1.3 5.7-3.9 20.9-25.3 42.4-48.8 41.9-19.4-.4-34.4-6.3-45-22.8-.9-3.9-.9-7.7.2-11.5.6-4.3.6-3.3 1.7-8zm29.5 2.4c-5.8 0-12.3 6.5-12.2 12.3.1 5.7 5.9 11.3 11.9 11.5 6.5.2 12.3-5.2 12.3-11.6 0-6.4-5.8-12.2-12-12.2z"/><path class="st0" d="M768.3 284.9c10.5 16.5 25.6 22.4 45 22.8 23.5.4 44.9-21 48.8-41.9.4-1.9.9-3.8 1.3-5.7 7.4 21.8-6 43.1-31.2 49.9-13.1 3.6-26.4 4.3-39.9 2.8-15.4-1.7-24.2-12-24-27.9z"/><path class="st4" d="M1133.9 136.7c3.9 1.5 7.2 3.7 9.8 7 0 .8-.3 1.9 0 2.5 10.7 19.4 4.1 40.7-11.3 52.8-14.7 11.6-36.2 13.7-53.1 1.9-12.8-9-19-21.5-19.6-37 3.4-15.4 11.8-27 25.8-34.5 3.4-1.4 2.4-1.4 6.5-1.3 3.8-1.2 7.7-.7 11.6-.3 5.4.2 6.4.2 9.8 1.8 2.5.5 4.9 1 7.4 1.6 2.2.9 2.2.9 3.6 1.3 1.7.6 3.4 1.2 5.1 1.9 3.5.6 2.5.6 4.4 2.3zm-7.3 25.1c-.2-7.1-7.4-14.3-14.4-14.2-7.8 0-14.5 7.1-14.2 15 .3 7.8 6.8 14.3 14.2 14.1 8-.2 14.6-7 14.4-14.9z"/><path class="st0" d="M1059.8 163.8c.6 15.5 6.8 28 19.6 37 16.9 11.8 38.4 9.6 53.1-1.9 15.4-12.1 22-33.3 11.3-52.8-.4-.6 0-1.7 0-2.5 11.9 8.5 14 19.5 6.8 37.2-3 7.4-7.2 14.2-12.6 20.2-19.2 21.4-47.1 19.8-68.2-4.1-8.4-9.3-14.4-19.7-10-33.1z"/><path class="st1" d="M799.6 267.7c6.2 0 12 5.9 12 12.1 0 6.4-5.8 11.8-12.3 11.6-6-.2-11.8-5.8-11.9-11.5-.1-5.7 6.4-12.2 12.2-12.2zM1126.6 161.8c.2 7.8-6.5 14.7-14.5 14.9-7.3.2-13.9-6.3-14.2-14.1-.3-8 6.4-15 14.2-15 7.2 0 14.4 7.1 14.5 14.2z"/></svg>