<svg width="77" height="78" viewBox="0 0 77 78" fill="none" xmlns="http://www.w3.org/2000/svg">
<path fill-rule="evenodd" clip-rule="evenodd" d="M3 39C3 19.3939 18.8939 3.5 38.5 3.5C58.1063 3.5 74 19.3939 74 39C74 58.6063 58.1063 74.5 38.5 74.5C18.8939 74.5 3 58.6063 3 39ZM38.5 0.5C17.2371 0.5 0 17.7371 0 39C0 60.2631 17.2371 77.5 38.5 77.5C59.7631 77.5 77 60.2631 77 39C77 17.7371 59.7631 0.5 38.5 0.5ZM53.6659 30.9438C54.1871 30.2999 54.0877 29.3554 53.4438 28.8341C52.7999 28.3129 51.8554 28.4123 51.3341 29.0562L35.3825 48.7612L26.0607 39.4393C25.4749 38.8536 24.5251 38.8536 23.9393 39.4393C23.3536 40.0251 23.3536 40.9749 23.9393 41.5607L34.4393 52.0607C34.74 52.3613 35.1541 52.5202 35.5786 52.4979C36.0032 52.4757 36.3984 52.2742 36.6659 51.9438L53.6659 30.9438Z" fill="#8562CE"/>
</svg>
