<svg width="10" height="12" viewBox="0 0 10 12" fill="none" xmlns="http://www.w3.org/2000/svg">
<path d="M5.86727 11.196C4.51393 11.196 3.47793 10.762 2.75927 9.894C2.0406 9.01667 1.68127 7.71467 1.68127 5.988V5.792C1.68127 4.06533 2.0266 2.768 2.71727 1.9C3.40793 1.02267 4.42527 0.584 5.76927 0.584C6.57193 0.584 7.2346 0.714666 7.75727 0.976C8.27993 1.23733 8.67193 1.59667 8.93327 2.054C9.20393 2.51133 9.35327 3.03867 9.38127 3.636H8.17727C8.13993 3.048 7.9206 2.586 7.51927 2.25C7.11793 1.90467 6.5346 1.732 5.76927 1.732C4.83593 1.732 4.12193 2.054 3.62727 2.698C3.1326 3.342 2.88527 4.406 2.88527 5.89C2.88527 7.374 3.14193 8.438 3.65527 9.082C4.17793 9.726 4.91527 10.048 5.86727 10.048C6.6606 10.048 7.2486 9.88 7.63127 9.544C8.01393 9.19867 8.22393 8.732 8.26127 8.144H9.46527C9.43727 8.75067 9.2926 9.28267 9.03127 9.74C8.76993 10.1973 8.37793 10.5567 7.85527 10.818C7.3326 11.07 6.66993 11.196 5.86727 11.196ZM0.449266 7.542V6.618H6.66527V7.542H0.449266ZM0.701266 5.414V4.49H6.91727V5.414H0.701266Z" fill="#282828"/>
</svg>
